# xmcd
#
# Track frame offsets:
#	150
#	22239
#	44738
#	75495
#	94955
#	110046
#	125275
#	144184
#	145894
#	159373
#	177032
#	198338
#	218597
#	234704
#	261529
#	280217
#	305571
#	328818
#	333644
#
# Disc length: 4680 seconds
#
# Revision: 0
# Processed by: cddbd v1.5.2PL0 Copyright (c) Steve Scherf et al.
# Submitted via: VUPlayer 2.48
#
DISCID=21124613
DTITLE=Nits - Black session #082 - 18-10-1995 and Uitmarkt Amsterdam Afscheids Con
DTITLE=cert
DYEAR=1995
DGENRE=Eclectic
TTITLE0=Road Not Taken
TTITLE1=The Train
TTITLE2=Boy in a Tree
TTITLE3=Cars and Cars
TTITLE4=Love Of My Life (Tombe La Neige)
TTITLE5=Home Before Dark
TTITLE6=The Dream
TTITLE7=Broken Wing (Man in a Suitcase) (intro)
TTITLE8=Broken Wing (Man in a Suitcase) (French)
TTITLE9=In The Dutch Mountains
TTITLE10=Adieu Sweet Banhof
TTITLE11=Nescio
TTITLE12=J.O.S. Days
TTITLE13=The Train <-- Uitmarkt Amsterdam Afscheids Concert
TTITLE14=The Dream <-- Uitmarkt Amsterdam Afscheids Concert
TTITLE15=Nescio <-- Uitmarkt Amsterdam Afscheids Concert
TTITLE16=Cars and Cars <-- Uitmarkt Amsterdam Afscheids Concert
TTITLE17=In The Dutch Mountains <-- Uitmarkt Amsterdam Afscheids Concert
TTITLE18=In The Dutch Mountaind (Dutch) <-- Uitmarkt Amsterdam Afscheids Concert
EXTD=
EXTT0=Black session #082 - 18-10-1995
EXTT1=
EXTT2=
EXTT3=CUT
EXTT4=
EXTT5=
EXTT6=
EXTT7=
EXTT8=
EXTT9=
EXTT10=
EXTT11=
EXTT12=
EXTT13=Uitmarkt Amsterdam Afscheids Concert
EXTT14=
EXTT15=
EXTT16=
EXTT17=
EXTT18=
PLAYORDER=
